:SAMPLES-PER-SECOND 30
:FULLY-SPECIFIED
:DEGREES
194
root  1.45881 38.9423 -0.29605 22.1372 -58.0594 -23.582
RightUpLeg  -10.9283 -14.2417 17.6503
RightLeg  21.7849 6.58221 2.66316
RightFoot  -7.42994 -0.328475 8.0316
RightToes  -1.28057e-009 0 -3.6325e-017
Spine  16.2991 -1.08377 -25.1493
Spine1  -4.09607 -9.42793 35.4489
HEad  -13.686 -4.41113 9.02227
LeftShoulder1  0.298822 -4.37444 5.24383
LeftArm  60.3204 -31.9504 -111.314
LeftForeArm  61.5624 -45.7382 -7.3356
LeftHand  0.839013 7.06747 51.8309
RightShoulder  0.458737 -1.12717 12.3447
RightArm  -38.8129 -6.02042 49.8434
RightForeArm  36.8065 59.7811 16.0721
RightHand  -2.7264 0.341807 -51.8225
LeftUpLeg  -19.2492 -27.2623 12.4542
LeftLeg  39.8557 22.5894 19.2926
LeftFoot  -11.7209 0.0439264 -6.3227
LeftToes  -7.27922e-012 9.28972e-011 -9.04533e-012
195
root  1.83045 38.5876 -0.00317477 18.8195 -60.833 -20.1682
RightUpLeg  -11.7169 -10.486 14.7589
RightLeg  24.8197 3.06688 1.2996
RightFoot  -12.2462 -0.0201726 7.78965
RightToes  -1.28057e-009 0 -3.6325e-017
Spine  16.6404 -0.691437 -22.6842
Spine1  -1.87053 -8.83789 31.2102
HEad  -17.555 -4.27296 7.27204
LeftShoulder1  0.741257 -3.90201 -1.74017
LeftArm  53.1206 -24.4203 -100.094
LeftForeArm  55.3876 -36.7269 -5.12279
LeftHand  0.991753 7.38587 51.8328
RightShoulder  0.769832 0.134464 14.4083
RightArm  -30.0081 -5.88609 53.8599
RightForeArm  31.1497 49.256 10.5344
RightHand  -2.33556 -0.271132 -50.0621
LeftUpLeg  -18.2956 -23.7639 8.98293
LeftLeg  39.2661 20.2776 17.231
LeftFoot  -14.5893 -0.115695 -7.31566
LeftToes  -7.27922e-012 9.28972e-011 -9.04533e-012
196
root  2.3383 38.3529 0.634848 12.8679 -64.2128 -14.4769
RightUpLeg  -12.8082 -4.46707 10.2631
RightLeg  29.2034 -0.537039 -0.560637
RightFoot  -15.0309 0.155468 7.98899
RightToes  -1.28057e-009 0 -3.6325e-017
Spine  17.9414 -0.714976 -15.7245
Spine1  -0.87775 -6.83269 21.9443
HEad  -21.7422 -6.2212 4.31204
LeftShoulder1  1.33761 -4.48584 -9.25791
LeftArm  38.1088 -18.0888 -83.5731
LeftForeArm  47.157 -33.2555 -4.72007
LeftHand  0.903174 7.27389 50.1409
RightShoulder  0.985647 1.00173 15.1565
RightArm  -15.332 -3.75136 59.4055
RightForeArm  32.9512 44.4919 8.67949
RightHand  -2.34496 -0.0394003 -48.277
LeftUpLeg  -16.6851 -17.9194 3.73125
LeftLeg  38.0947 17.8643 14.8029
LeftFoot  -16.2776 -0.137336 -5.46858
LeftToes  -7.27922e-012 9.28972e-011 -9.04533e-012
197
root  2.80627 38.278 1.59673 2.44965 -68.3974 -4.65863
RightUpLeg  -13.4109 4.71414 4.41569
RightLeg  33.5633 -3.71734 -2.8932
RightFoot  -15.5744 0.18781 7.93723
RightToes  -1.28057e-009 0 -3.6325e-017
Spine  18.678 -1.60383 -4.10875
Spine1  0.340534 -3.5308 6.18116
HEad  -24.6548 -10.1731 0.695658
LeftShoulder1  1.89651 -5.706 -13.7251
LeftArm  21.2932 -13.3142 -67.105
LeftForeArm  39.6942 -33.9401 -5.27968
LeftHand  0.652168 6.7844 48.802
RightShoulder  1.10514 1.67094 14.5789
RightArm  -0.610967 -0.0140176 66.4826
RightForeArm  41.9457 46.2151 8.7238
RightHand  -2.18607 -0.181779 -46.4204
LeftUpLeg  -13.8972 -8.35238 -2.8337
LeftLeg  35.2202 15.2352 11.6989
LeftFoot  -16.5295 -0.0119771 -2.37008
LeftToes  -7.27922e-012 9.28972e-011 -9.04533e-012
198
root  3.0367 38.3897 2.62521 -16.1356 -72.5451 14.6523
RightUpLeg  -14.5096 16.2507 -2.58157
RightLeg  36.518 -7.77735 -6.3907
RightFoot  -15.1535 0.111859 6.43092
RightToes  -1.28057e-009 0 -3.6325e-017
Spine  17.8071 -2.55311 6.66058
Spine1  1.20353 0.293329 -11.5693
HEad  -24.5029 -13.8972 -2.93255
LeftShoulder1  1.74176 -5.08401 -13.2069
LeftArm  5.14372 -10.286 -56.2426
LeftForeArm  35.3417 -36.3189 -6.11504
LeftHand  0.760833 6.96847 50.0533
RightShoulder  1.09112 2.21573 12.0515
RightArm  11.1596 6.46059 75.0579
RightForeArm  52.8511 50.7148 9.66228
RightHand  -1.88369 -0.750011 -45.1307
LeftUpLeg  -10.8651 4.37704 -9.67962
LeftLeg  29.0524 10.4831 6.54387
LeftFoot  -15.2044 0.03614 -1.74579
LeftToes  -7.27922e-012 9.28972e-011 -9.04533e-012
199
root  3.07028 38.5372 3.40919 -38.8465 -74.1989 39.6974
RightUpLeg  -17.4967 25.5787 -9.51169
RightLeg  38.8931 -12.1704 -10.5789
RightFoot  -14.3685 0.00108222 3.64532
RightToes  -1.28057e-009 0 -3.6325e-017
Spine  16.9192 -2.55248 12.9857
Spine1  -0.149745 3.42257 -24.7698
HEad  -22.3776 -15.9471 -5.75926
LeftShoulder1  0.888908 -1.6737 -9.64839
LeftArm  -12.2414 -10.3052 -52.449
LeftForeArm  35.7504 -40.709 -7.30872
LeftHand  1.21657 7.82324 52.3271
RightShoulder  0.802077 2.08546 6.6421
RightArm  19.4141 14.9982 83.975
RightForeArm  60.8846 57.855 12.5792
RightHand  -1.88647 -0.826912 -45.8544
LeftUpLeg  -9.56054 12.7831 -14.9153
LeftLeg  23.0865 6.41507 1.15873
LeftFoot  -12.4579 0.0418016 -4.06506
LeftToes  -7.27922e-012 9.28972e-011 -9.04533e-012
200
root  3.15765 38.6183 3.73533 -49.9828 -73.5975 52.611
RightUpLeg  -20.5876 28.6337 -13.573
RightLeg  40.7842 -14.1877 -13.0009
RightFoot  -12.9397 -0.0672935 1.56784
RightToes  -1.28057e-009 0 -3.6325e-017
Spine  17.388 -2.35434 15.4145
Spine1  -2.04459 4.72935 -30.673
HEad  -21.2326 -16.8983 -6.85711
LeftShoulder1  0.190904 2.09676 -6.14825
LeftArm  -29.6552 -14.3148 -53.4596
LeftForeArm  40.5845 -49.8351 -10.2762
LeftHand  1.33891 8.04817 52.711
RightShoulder  0.384505 0.986697 0.0395776
RightArm  20.888 23.6306 88.5537
RightForeArm  71.5855 69.4601 22.6841
RightHand  -1.8414 -0.969477 -46.1482
LeftUpLeg  -10.5072 11.3959 -17.2093
LeftLeg  21.7406 7.93349 -1.0342
LeftFoot  -9.70241 0.138933 -6.12904
LeftToes  -7.27922e-012 9.28972e-011 -9.04533e-012
201
root  3.39589 38.59 3.56343 -45.1435 -73.0624 47.1178
RightUpLeg  -20.8254 26.0231 -12.6011
RightLeg  41.5434 -12.8144 -12.1412
RightFoot  -11.63 -0.0757923 1.53405
RightToes  -1.28057e-009 0 -3.6325e-017
Spine  19.3188 -2.67435 14.8656
Spine1  -2.44126 4.32465 -29.5764
HEad  -21.8316 -17.2506 -5.7208
LeftShoulder1  0.028877 3.21606 -3.56258
LeftArm  -41.6465 -21.9286 -54.8752
LeftForeArm  49.3054 -63.2521 -17.8261
LeftHand  1.39325 8.20774 51.9427
RightShoulder  0.123529 -0.720863 -4.56051
RightArm  12.7828 30.6401 84.443
RightForeArm  107.417 80.639 61.2482
RightHand  -1.44658 -1.7963 -44.8233
LeftUpLeg  -12.3275 14.5896 -17.5507
LeftLeg  25.0951 3.3972 0.376837
LeftFoot  -8.86633 0.165855 -5.1062
LeftToes  -7.27922e-012 9.28972e-011 -9.04533e-012
202
root  3.61386 38.4106 2.96634 -33.3735 -72.5813 32.9012
RightUpLeg  -18.8559 20.6869 -8.33375
RightLeg  41.5566 -9.63134 -9.29639
RightFoot  -11.3881 -0.0768966 2.08574
RightToes  -1.28057e-009 0 -3.6325e-017
Spine  22.9241 -2.92913 11.2928
Spine1  -3.41982 2.70544 -23.665
HEad  -22.1187 -16.3586 -2.7171
LeftShoulder1  0.168581 1.54879 -0.50326
LeftArm  -45.7041 -31.6562 -54.0261
LeftForeArm  70.1454 -75.8356 -37.4275
LeftHand  1.72558 8.92398 51.5585
RightShoulder  0.0369802 -2.35266 -5.8213
RightArm  -4.0469 33.4057 72.6587
RightForeArm  170.199 79.4361 130.107
RightHand  -1.2508 -2.22906 -44.2049
LeftUpLeg  -12.9533 10.5964 -14.8533
LeftLeg  29.6726 5.29589 3.8428
LeftFoot  -10.1344 0.106091 -4.51907
LeftToes  -7.27922e-012 9.28972e-011 -9.04533e-012
203
root  3.63529 38.1449 2.02671 -20.3473 -72.1147 17.9843
RightUpLeg  -17.7441 14.1389 -2.88716
RightLeg  41.4136 -6.46244 -6.34743
RightFoot  -11.4439 -0.0757829 0.711565
RightToes  -1.28057e-009 0 -3.6325e-017
Spine  27.1439 -1.98023 4.562
Spine1  -7.02317 0.779705 -14.1567
HEad  -20.7579 -13.8667 0.953895
LeftShoulder1  0.20753 -0.671714 3.983
LeftArm  -40.4756 -42.3545 -54.6995
LeftForeArm  122.916 -81.6359 -86.5667
LeftHand  1.96641 9.47961 50.9619
RightShoulder  0.0122079 -3.27843 -4.16363
RightArm  -23.2503 29.9017 58.2884
RightForeArm  171.527 76.9637 139.486
RightHand  -1.4615 -1.83722 -45.6809
LeftUpLeg  -13.7876 1.9127 -10.0076
LeftLeg  34.3905 10.146 7.76672
LeftFoot  -12.4892 0.0063248 -6.38243
LeftToes  -7.27922e-012 9.28972e-011 -9.04533e-012
204
root  3.4615 37.878 0.89161 -2.58148 -70.4073 0.160004
RightUpLeg  -18.9073 5.62775 4.31603
RightLeg  40.8106 -3.67699 -3.68643
RightFoot  -10.3041 -0.0433262 -2.4024
RightToes  -1.28057e-009 0 -3.6325e-017
Spine  29.3296 -0.0811698 -3.94035
Spine1  -10.7151 -0.944796 0.0635083
HEad  -19.017 -10.3516 3.93698
LeftShoulder1  0.00848786 -1.97045 9.5068
LeftArm  -21.36 -52.0385 -67.0093
LeftForeArm  153.331 -81.2895 -110.939
LeftHand  1.80769 9.21185 50.2057
RightShoulder  0.0151839 -3.32214 -1.17127
RightArm  -36.3891 22.7713 47.0107
RightForeArm  141.079 79.9835 115.445
RightHand  -1.8664 -1.13266 -48.3383
LeftUpLeg  -17.4716 -7.72948 -2.84485
LeftLeg  40.2768 12.8982 11.8439
LeftFoot  -14.268 -0.146081 -9.17382
LeftToes  -7.27922e-012 9.28972e-011 -9.04533e-012
205
root  3.17646 37.5923 -0.192973 16.1623 -64.1939 -17.5992
RightUpLeg  -21.5936 -5.55067 13.6542
RightLeg  39.3922 -0.230311 -0.488656
RightFoot  -8.27627 0.0508382 -4.16404
RightToes  -1.28057e-009 0 -3.6325e-017
Spine  29.1526 0.808348 -11.1292
Spine1  -11.2561 -3.39334 17.5648
HEad  -18.57 -6.78614 5.95893
LeftShoulder1  -0.279234 -2.92984 14.6303
LeftArm  1.07046 -63.5933 -82.4476
LeftForeArm  120.023 -81.3254 -72.4904
LeftHand  1.41803 8.36491 50.4258
RightShoulder  0.0489961 -2.99098 1.44674
RightArm  -42.779 16.5661 40.6377
RightForeArm  79.4139 79.0797 56.6443
RightHand  -2.48544 -0.058741 -50.953
LeftUpLeg  -24.5545 -18.0727 7.4776
LeftLeg  47.3756 13.8969 16.0246
LeftFoot  -14.1796 -0.175546 -10.5064
LeftToes  -7.27922e-012 9.28972e-011 -9.04533e-012
206
root  2.87258 37.1972 -1.0231 25.7344 -54.9251 -26.5021
RightUpLeg  -24.9117 -17.1109 22.7622
RightLeg  38.7207 4.49394 3.58469
RightFoot  -7.40132 0.0405223 -2.59548
RightToes  -1.28057e-009 0 -3.6325e-017
Spine  29.14 0.298784 -15.0912
Spine1  -9.69523 -6.91079 32.7229
HEad  -19.5673 -4.17769 8.09731
LeftShoulder1  -0.499141 -3.8679 17.4389
LeftArm  34.5747 -59.4702 -109.228
LeftForeArm  76.682 -72.5324 -26.9727
LeftHand  1.33933 8.09887 51.8756
RightShoulder  0.0830859 -2.78621 3.82721
RightArm  -45.6016 12.1625 39.7969
RightForeArm  48.9483 70.9505 27.413
RightHand  -3.28422 1.28874 -53.3566
LeftUpLeg  -33.1481 -26.625 18.3221
LeftLeg  54.1398 13.8239 19.992
LeftFoot  -12.6052 -0.0378061 -10.0373
LeftToes  -7.27922e-012 9.28972e-011 -9.04533e-012
207
root  2.69579 36.784 -1.54158 28.7165 -48.7157 -29.2387
RightUpLeg  -27.8751 -23.9869 28.3085
RightLeg  39.7583 8.41307 7.1744
RightFoot  -8.06164 -0.0647402 0.431509
RightToes  -1.28057e-009 0 -3.6325e-017
Spine  29.8831 0.341663 -16.9657
Spine1  -7.52721 -9.36084 40.7041
HEad  -21.7392 -3.23232 11.0052
LeftShoulder1  -0.503074 -4.41786 16.9227
LeftArm  60.5256 -57.0974 -126.16
LeftForeArm  62.8164 -57.8814 -12.1703
LeftHand  1.55048 8.39879 53.8371
RightShoulder  0.170192 -2.35988 7.28905
RightArm  -46.3909 7.93102 42.6853
RightForeArm  38.222 63.1773 18.4643
RightHand  -3.75185 1.95274 -55.1417
LeftUpLeg  -39.4884 -30.4937 25.1397
LeftLeg  58.5326 13.4083 22.7252
LeftFoot  -11.164 0.0826188 -9.09302
LeftToes  -7.27922e-012 9.28972e-011 -9.04533e-012
208
root  2.78397 36.2994 -1.74918 29.4467 -48.1895 -30.0818
RightUpLeg  -29.8862 -23.4335 29.2335
RightLeg  42.9703 8.48332 8.04955
RightFoot  -9.56723 -0.0941579 1.71318
RightToes  -1.28057e-009 0 -3.6325e-017
Spine  30.0488 1.45166 -16.8496
Spine1  -4.55677 -9.3804 40.7887
HEad  -25.4163 -3.8841 13.4689
LeftShoulder1  -0.233443 -4.8895 12.8734
LeftArm  71.4605 -50.0906 -126.399
LeftForeArm  58.1689 -44.964 -7.19247
LeftHand  1.60124 8.38905 55.4577
RightShoulder  0.414271 -1.2806 11.5325
RightArm  -44.1803 4.12414 46.5275
RightForeArm  32.09 56.3 14.1325
RightHand  -3.71365 1.79196 -55.682
LeftUpLeg  -41.5539 -29.2043 26.0909
LeftLeg  61.1553 12.2108 23.1265
LeftFoot  -11.7906 0.0309627 -9.31908
LeftToes  -7.27922e-012 9.28972e-011 -9.04533e-012
